<?xml version="1.0" encoding="utf-8"?>
<!-- Generator: Adobe Illustrator 19.0.0, SVG Export Plug-In . SVG Version: 6.00 Build 0)  -->
<svg version="1.1" id="Layer_1" xmlns="http://www.w3.org/2000/svg" xmlns:xlink="http://www.w3.org/1999/xlink" x="0px" y="0px"
	 viewBox="-178 182 42.5 38" style="enable-background:new -178 182 42.5 38;" xml:space="preserve">
<style type="text/css">
	.st0{fill:#63C29A;}
</style>
<g id="XMLID_95_">
	<g id="XMLID_96_">
		<path id="XMLID_98_" class="st0" d="M-170.3,198.2c7.9,5.9,10.7,16,11.4,19c0.7-3.4,1-12.1-1.5-18.5c-3.2-8.6-16.2-10.5-16.2-10.5
			s-3.8,14.8,1.2,22c4,5.8,13.6,8.6,16.4,9C-160.2,209.4-170.3,198.2-170.3,198.2z"/>
		<path id="XMLID_97_" class="st0" d="M-137.5,182c0,0-12.8,4.6-20.2,13.5c-8.6,10.3-3.3,20.7-1.3,23.7c0.6-4.6,3-16.7,11.6-24.4
			c0,0-8.8,12.8-9.8,25.1c3.4-0.6,13.6-2.9,18.6-10.4C-132.4,200.5-137.5,182-137.5,182z"/>
	</g>
</g>
</svg>
